<svg width="120" height="74" viewBox="0 0 120 74" fill="none" xmlns="http://www.w3.org/2000/svg">
<path d="M119.887 6.61271C119.368 5.66262 116.671 0.899037 114.417 0.384493C113.864 0.25908 113.333 0.357771 112.89 0.674702C110.929 2.08472 109.029 4.50694 108.948 4.60962C108.629 5.01774 108.703 5.60659 109.111 5.92517C109.517 6.24116 110.107 6.17247 110.427 5.76318C110.444 5.74021 112.238 3.4523 113.956 2.20638C113.961 2.20638 113.967 2.20638 113.97 2.20638C114.642 2.20638 116.53 4.50437 117.999 7.07967C116.31 10.391 108.68 25.8679 111.02 30.7761C114.728 38.5564 111.282 45.6279 107.736 50.191C96.9779 64.0371 69.0345 75.7523 42.6437 70.5356C28.3377 67.7066 9.7489 58.7069 2.04925 31.9635L8.11548 28.8992C16.1939 40.8467 30.0862 47.7917 47.3437 48.4786C68.3275 49.308 90.1756 40.4824 100.538 26.95L112.256 9.45806C112.545 9.02767 112.43 8.44538 112 8.15705C111.568 7.86965 110.985 7.98311 110.7 8.41444L99.0157 25.8579C89.0347 38.8874 67.8294 47.4148 47.4187 46.6054C30.4523 45.93 16.8878 39.0286 9.22498 27.1771C8.96501 26.7735 8.44484 26.6314 8.01468 26.8494L0.514754 30.6378C0.115777 30.8394 -0.0858214 31.2944 0.0351376 31.7246C7.85575 59.965 27.325 69.4186 42.281 72.3741C46.7598 73.2602 51.2826 73.6683 55.7649 73.6683C78.3929 73.6683 99.9517 63.2644 109.217 51.3406C114.765 44.1996 115.973 36.8103 112.712 29.9686C111.149 26.691 116.288 14.4432 119.894 7.49341C120.038 7.2161 120.035 6.88651 119.887 6.61271Z" fill="white"/>
<path d="M116.86 11.8861C113.474 9.81529 110.048 6.70786 110.548 5.55993C110.753 5.0857 110.535 4.53271 110.061 4.32666C109.59 4.11779 109.034 4.33674 108.827 4.81284C107.439 8.007 113.875 12.2588 115.882 13.4865C116.034 13.5798 116.202 13.6239 116.371 13.6239C116.685 13.6239 116.993 13.4645 117.171 13.1752C117.44 12.7338 117.301 12.1571 116.86 11.8861Z" fill="white"/>
<path d="M102.576 30.5832C102.105 30.368 101.55 30.5776 101.334 31.0483C97.0822 40.4022 78.4405 52.0384 57.4677 54.4555C37.9762 56.7021 21.3907 50.3192 10.743 36.4891C10.4264 36.0772 9.83679 36.0013 9.42844 36.3189C9.01844 36.6347 8.94156 37.2235 9.25638 37.6338C18.8747 50.1251 33.124 56.7734 49.9293 56.7734C52.458 56.7734 55.0452 56.6213 57.6819 56.3177C75.1225 54.3092 97.5107 43.9874 103.041 31.8247C103.255 31.3533 103.046 30.7975 102.576 30.5832Z" fill="white"/>
<path d="M97.3039 24.614C96.9854 24.2019 96.3958 24.1285 95.9893 24.4454C95.7205 24.6534 95.4457 24.8557 95.1729 25.0551C81.647 34.888 59.169 38.1354 40.4996 32.9442C25.7761 28.8508 14.8889 20.0215 9.84425 8.0822C9.65742 7.64197 9.16492 7.40755 8.70898 7.55031L0.667077 9.98192C0.238563 10.1108 -0.0380484 10.5239 0.00414659 10.9688C0.525958 16.3667 1.59349 21.4597 3.18284 26.1051C3.34927 26.5957 3.88234 26.8548 4.37297 26.689C4.86196 26.5214 5.12381 25.9888 4.95526 25.4989C3.49039 21.2098 2.47982 16.5221 1.94863 11.5527L8.45252 9.58622C13.8615 21.6692 25.0307 30.5893 39.9977 34.7504C46.2524 36.4898 52.8316 37.3313 59.35 37.3313C73.1323 37.3313 86.6492 33.5685 96.2786 26.5692C96.566 26.3571 96.8553 26.1457 97.1354 25.9286C97.5456 25.6119 97.6209 25.0233 97.3039 24.614Z" fill="white"/>
<path d="M47.9758 42.907C36.0412 40.8052 19.4501 34.3111 8.17819 15.303C7.91447 14.8555 7.33757 14.7116 6.89452 14.9743C6.4496 15.2388 6.30122 15.8138 6.56681 16.2587C18.1995 35.8794 35.3288 42.583 47.65 44.7528C47.7048 44.7635 47.7599 44.7673 47.8148 44.7673C48.2595 44.7673 48.6551 44.4468 48.7358 43.9928C48.8256 43.4839 48.4847 42.9967 47.9758 42.907Z" fill="white"/>
</svg>
